<svg width="480" height="480" viewBox="0 0 480 480" fill="none" xmlns="http://www.w3.org/2000/svg">
<rect width="480" height="480" fill="#E0E7FF"/>
<g clip-path="url(#clip0_166_298)">
<path d="M176.061 111.324C173.503 112.076 169.741 114.032 167.634 115.612C157.928 122.911 154.016 132.165 154.016 147.891V154.136H150.103C132.948 154.211 117.223 165.271 111.731 181.222L110 186.113V340.356L112.031 345.473C116.696 357.06 125.199 365.336 136.71 369.474L141.601 371.205L215.337 371.431C267.102 371.581 290.578 371.355 294.114 370.829C313.075 367.593 326.994 350.363 327.069 329.973V326.437H336.324C343.622 326.437 346.557 326.136 349.867 325.007C358.219 322.148 364.765 316.129 368.753 307.702L371.085 302.736V133.369L368.301 127.726C364.84 120.729 359.874 115.838 352.802 112.528L347.76 110.12L264.243 109.969C183.134 109.819 180.576 109.894 176.061 111.324ZM294.716 153.383C301.864 154.512 311.194 159.327 316.536 164.669C322.103 170.237 326.768 179.341 327.822 186.865C328.273 189.95 328.574 218.165 328.574 255.109V318.16H306.754V189.047L304.798 185.135C302.691 180.846 299.606 177.912 295.092 175.88C292.233 174.526 288.396 174.451 227.601 174.451H163.045V152.631H226.473C265.297 152.631 291.706 152.932 294.716 153.383ZM154.166 236.675C154.467 308.454 154.091 304.015 160.261 313.044C164.023 318.461 170.794 323.502 176.738 325.308C180.124 326.286 189.228 326.437 244.455 326.437H308.259V331.854C308.259 335.992 307.808 338.25 306.453 341.109C304.271 345.774 298.854 350.739 294.565 351.943C292.158 352.62 271.918 352.771 216.842 352.62C144.912 352.395 142.278 352.32 139.419 350.965C135.507 349.009 131.594 345.021 129.864 341.184C128.509 338.25 128.434 334.638 128.434 263.084C128.434 212.221 128.66 187.392 129.262 185.962C131.293 180.545 136.71 175.203 141.676 173.698C142.88 173.397 146.116 173.021 148.899 173.021L153.941 172.946L154.166 236.675Z" fill="#6366F1"/>
</g>
<defs>
<clipPath id="clip0_166_298">
<rect x="110" y="110" width="261.085" height="261.085" rx="26.1085" fill="white"/>
</clipPath>
</defs>
</svg>
